#N canvas 52 8 618 791 12;
#X msg 440 279 tempo \$1;
#X msg 254 279 resolution \$1;
#X msg 350 279 reset \$1 \$2;
#X obj 350 258 pack f f;
#X floatatom 284 405 5 0 0 1 beat_time - - 0;
#X floatatom 256 426 5 0 0 1 phase - - 0;
#X msg 125 379 \; pd dsp 1;
#X floatatom 225 450 5 0 0 1 step - - 0;
#X floatatom 312 383 5 0 0 1 tempo - - 0;
#X obj 111 259 tgl 15 0 empty empty empty 17 7 0 10 #fcfcfc #000000 #000000 0 1;
#X obj 229 342 abl_link~ 1 0 4 134;
#X floatatom 440 260 5 0 0 2 tempo - - 0;
#X floatatom 395 239 5 0 0 2 quantum - - 0;
#X floatatom 350 239 5 0 0 2 beat - - 0;
#X floatatom 254 259 5 0 0 2 resolution - - 0;
#X msg 111 280 connect \$1;
#X floatatom 104 189 5 0 0 0 - - - 0;
#X obj 104 167 r #abl_link_num_peers;
#X floatatom 340 364 5 0 0 1 is_playing - - 0;
#X obj 194 259 tgl 15 0 empty empty empty 17 7 0 10 #fcfcfc #000000 #000000 0 1;
#X msg 194 279 play \$1;
#X floatatom 510 259 5 0 0 0 - - - 0;
#X msg 510 279 offset \$1;
#X msg 461 211 185;
#X obj 329 160 / 24;
#X msg 396 199 4;
#X msg 513 226 0;
#X obj 641 467 tgl 15 0 empty empty empty 17 7 0 10 #fcfcfc #000000 #000000 0 1;
#X obj 641 591 midiout;
#X obj 532 494 select 0 1;
#X msg 532 528 252;
#X msg 569 528 250;
#X msg 641 521 248;
#X obj 641 491 metro 20.8333;
#X floatatom 739 463 5 0 0 0 - - - 0;
#X obj 696 438 expr (60000/$f1/24);
#X obj 135 94 loadbang;
#X obj 669 172 midirealtimein;
#X obj 676 201 sel 248 250 251 252;
#X obj 694 233 print sequencer_start;
#X obj 721 254 print sequencer_continue;
#X obj 749 275 print sequencer_stop;
#X obj 693 301 bng 50 250 50 0 empty empty empty 17 7 0 10 #0c4410 #fcfcfc #000000;
#X obj 835 300 bng 50 250 50 0 empty empty empty 17 7 0 10 #fc0400 #fcfcfc #000000;
#X obj 754 301 bng 50 250 50 0 empty empty empty 17 7 0 10 #0400fc #fcfcfc #000000;
#X msg 679 379 250;
#X msg 736 383 251;
#X msg 805 385 252;
#X obj 710 358 t b b;
#X connect 0 0 10 0;
#X connect 1 0 10 0;
#X connect 2 0 10 0;
#X connect 3 0 2 0;
#X connect 9 0 15 0;
#X connect 10 0 7 0;
#X connect 10 1 5 0;
#X connect 10 2 4 0;
#X connect 10 3 8 0;
#X connect 10 3 35 0;
#X connect 10 4 18 0;
#X connect 11 0 0 0;
#X connect 12 0 3 1;
#X connect 13 0 3 0;
#X connect 14 0 1 0;
#X connect 15 0 10 0;
#X connect 17 0 16 0;
#X connect 19 0 20 0;
#X connect 20 0 10 0;
#X connect 21 0 22 0;
#X connect 22 0 10 0;
#X connect 23 0 11 0;
#X connect 24 0 13 0;
#X connect 25 0 12 0;
#X connect 26 0 21 0;
#X connect 27 0 29 0;
#X connect 27 0 33 0;
#X connect 29 0 30 0;
#X connect 29 1 31 0;
#X connect 30 0 28 0;
#X connect 31 0 28 0;
#X connect 32 0 28 0;
#X connect 33 0 32 0;
#X connect 34 0 33 1;
#X connect 35 0 34 0;
#X connect 36 0 27 0;
#X connect 36 0 6 0;
#X connect 37 0 38 0;
#X connect 38 1 39 0;
#X connect 38 1 42 0;
#X connect 38 1 45 0;
#X connect 38 2 40 0;
#X connect 38 2 44 0;
#X connect 38 2 46 0;
#X connect 38 3 41 0;
#X connect 38 3 43 0;
#X connect 38 3 47 0;
#X connect 42 0 45 0;
#X connect 42 0 48 0;
#X connect 43 0 47 0;
#X connect 44 0 46 0;
#X connect 45 0 28 0;
#X connect 46 0 28 0;
#X connect 47 0 28 0;
#X connect 48 0 45 0;
#X connect 48 1 47 0;
