#N canvas 3125 157 889 772 10;
#X obj 349 44 midirealtimein;
#X obj 65 307 bng 15 250 50 0 empty empty empty 17 7 0 10 #fcfcfc #000000
#000000;
#X obj 86 307 bng 15 250 50 0 empty empty empty 17 7 0 10 #fcfcfc #000000
#000000;
#X obj 108 307 bng 15 250 50 0 empty empty empty 17 7 0 10 #fcfcfc
#000000 #000000;
#X obj 130 307 bng 15 250 50 0 empty empty empty 17 7 0 10 #fcfcfc
#000000 #000000;
#X obj 113 235 mod 96;
#X obj 201 207 + 1;
#X obj 163 207 f;
#X obj 65 274 sel 0 24 48 72;
#X obj 190 156 del 500;
#X msg 190 179 0;
#X obj 163 129 t b b;
#X text 220 176 < resets counter to 0;
#X obj 65 336 t b;
#X obj 0 373 bng 15 250 50 0 empty empty empty 17 7 0 10 #fcfcfc #000000
#000000;
#X obj 172 273 sel 0;
#X obj 172 240 mod 24;
#X text 248 231 < you have two different options here a) separate out
the beats or b) use in the more conventional [metro] form.;
#X text -47 -52 This is the simplest method to grab midiclock. There's
probably better methods of resetting the counter but this works for
most purposes. Hope it helps!;
#X msg 405 449 tempo \$1;
#X msg 219 449 resolution \$1;
#X msg 315 449 reset \$1 \$2;
#X obj 315 428 pack f f;
#X floatatom 249 575 5 0 0 1 beat_time - - 0;
#X floatatom 221 596 5 0 0 1 phase - - 0;
#X msg 90 549 \; pd dsp 1;
#X floatatom 190 620 5 0 0 1 step - - 0;
#X floatatom 277 553 5 0 0 1 tempo - - 0;
#X obj 76 429 tgl 15 0 empty empty empty 17 7 0 10 #fcfcfc #000000
#000000 0 1;
#X obj 194 512 abl_link~ 1 0 4 134;
#X floatatom 405 430 5 0 0 2 tempo - - 0;
#X floatatom 360 409 5 0 0 2 quantum - - 0;
#X floatatom 315 409 5 0 0 2 beat - - 0;
#X floatatom 219 429 5 0 0 2 resolution - - 0;
#X msg 76 450 connect \$1;
#X floatatom 302 643 5 0 0 0 - - - 0;
#X obj 302 621 r #abl_link_num_peers;
#X floatatom 305 534 5 0 0 1 is_playing - - 0;
#X obj 159 429 tgl 15 0 empty empty empty 17 7 0 10 #fcfcfc #000000
#000000 0 1;
#X msg 159 449 play \$1;
#X floatatom 475 429 5 0 0 0 - - - 0;
#X msg 475 449 offset \$1;
#X msg 426 381 185;
#X obj 182 360 / 24;
#X obj 346 78 sel 248 250 251 252;
#X obj 374 105 print sequencer_start;
#X obj 401 126 print sequencer_continue;
#X obj 429 147 print sequencer_stop;
#X obj 373 173 bng 50 250 50 0 empty empty empty 17 7 0 10 #0c4410
#fcfcfc #000000;
#X obj 496 174 bng 50 250 50 0 empty empty empty 17 7 0 10 #fc0400
#fcfcfc #000000;
#X obj 434 173 bng 50 250 50 0 empty empty empty 17 7 0 10 #0400fc
#fcfcfc #000000;
#X msg 361 369 4;
#X obj 75 87 spigot;
#X obj 108 66 tgl 15 0 empty empty empty 17 7 0 10 #fcfcfc #000000
#000000 0 1;
#X obj 41 21 tgl 15 0 empty empty empty 17 7 0 10 #fcfcfc #000000 #000000
0 1;
#X obj 42 46 metro 20;
#N canvas 848 140 450 300 kick 0;
#X obj 81 69 inlet;
#X obj 79 129 line~;
#X obj 79 158 sqrt~;
#X obj 79 183 *~ 20;
#X obj 80 208 -~ 0.25;
#X obj 81 233 cos~;
#X obj 83 261 dac~;
#X msg 79 99 0 \, 1 200;
#X connect 0 0 7 0;
#X connect 1 0 2 0;
#X connect 2 0 3 0;
#X connect 3 0 4 0;
#X connect 4 0 5 0;
#X connect 5 0 6 0;
#X connect 5 0 6 1;
#X connect 7 0 1 0;
#X restore 116 396 pd kick;
#N canvas 848 140 450 300 kick 0;
#X obj 79 51 inlet;
#X obj 79 129 line~;
#X obj 79 158 sqrt~;
#X obj 80 208 -~ 0.25;
#X obj 81 233 cos~;
#X obj 83 261 dac~;
#X msg 79 99 0 \, 1 100;
#X obj 79 183 *~ 30;
#X connect 0 0 6 0;
#X connect 1 0 2 0;
#X connect 2 0 7 0;
#X connect 3 0 4 0;
#X connect 4 0 5 0;
#X connect 4 0 5 1;
#X connect 6 0 1 0;
#X connect 7 0 3 0;
#X restore 67 396 pd kick;
#X obj 113 369 spigot;
#X obj 64 369 spigot;
#X obj 139 343 tgl 15 0 empty empty empty 17 7 0 10 #fcfcfc #000000
#000000 0 1;
#X floatatom 139 363 5 0 0 0 - - - 0;
#X floatatom 85 12 5 15 50 0 - - - 0;
#X obj 559 401 t b b;
#X obj 559 445 timer;
#X obj 173 303 bng 15 250 50 0 empty empty empty 0 -6 0 10 #fcfcfc
#000000 #000000;
#X obj 559 487 expr 60000 / $f1;
#X floatatom 559 523 10 0 0 0 - - - 0;
#N canvas 0 0 1040 834 superTT 0;
#X obj 307 139 t b b;
#X obj 307 183 timer;
#N canvas 0 0 450 300 (subpatch) 0;
#X array \$0-tt 6 float 2;
#X coords 0 1000 6 -1 40 50 1;
#X restore 501 202 graph;
#X obj 530 320 f;
#X msg 572 289 0;
#X obj 557 378 + 1;
#X obj 530 350 t f f;
#X obj 449 376 tabwrite \$0-tt;
#X obj 572 257 loadbang;
#X obj 308 364 until;
#X msg 355 397 0;
#X obj 308 430 f;
#X obj 308 512 tabread \$0-tt;
#X obj 308 541 + 0;
#X obj 308 462 t f f;
#X obj 335 489 + 1;
#X obj 308 567 t f f;
#X obj 220 472 f;
#X obj 308 300 t b b b;
#X msg 388 396 0;
#X obj 307 223 t b b f b;
#X obj 220 612 expr 60000 / $f1;
#X obj 307 92 inlet bang;
#X obj 96 673 outlet ms;
#X obj 220 671 outlet bpm;
#X obj 557 406 sel 6;
#X msg 308 339 6;
#X obj 220 498 / 6;
#X connect 0 0 1 0;
#X connect 0 1 1 1;
#X connect 1 0 20 0;
#X connect 3 0 6 0;
#X connect 4 0 3 1;
#X connect 5 0 25 0;
#X connect 6 0 7 1;
#X connect 6 1 5 0;
#X connect 8 0 4 0;
#X connect 9 0 11 0;
#X connect 10 0 11 1;
#X connect 11 0 14 0;
#X connect 12 0 13 0;
#X connect 13 0 16 0;
#X connect 14 0 12 0;
#X connect 14 1 15 0;
#X connect 15 0 11 1;
#X connect 16 0 17 1;
#X connect 16 1 13 1;
#X connect 17 0 27 0;
#X connect 18 0 26 0;
#X connect 18 1 10 0;
#X connect 18 2 19 0;
#X connect 19 0 13 1;
#X connect 20 0 17 0;
#X connect 20 1 18 0;
#X connect 20 2 7 0;
#X connect 20 3 3 0;
#X connect 21 0 24 0;
#X connect 22 0 0 0;
#X connect 25 0 4 0;
#X connect 25 1 3 1;
#X connect 26 0 9 0;
#X connect 27 0 21 0;
#X connect 27 0 23 0;
#X restore 688 487 pd superTT;
#X floatatom 688 524 8 0 0 3 ms - - 0;
#X floatatom 745 524 10 0 0 3 bpm - - 0;
#X msg 502 277 0;
#X obj 502 325 spigot;
#X obj 535 304 tgl 15 0 empty empty empty 17 7 0 10 #fcfcfc #000000
#000000 0 1;
#X msg 371 283 1;
#X connect 0 0 44 0;
#X connect 1 0 13 0;
#X connect 1 0 59 0;
#X connect 2 0 13 0;
#X connect 2 0 58 0;
#X connect 3 0 13 0;
#X connect 3 0 58 0;
#X connect 4 0 13 0;
#X connect 4 0 58 0;
#X connect 5 0 8 0;
#X connect 5 0 43 0;
#X connect 6 0 7 1;
#X connect 7 0 6 0;
#X connect 7 0 5 0;
#X connect 7 0 16 0;
#X connect 8 0 1 0;
#X connect 8 1 2 0;
#X connect 8 2 3 0;
#X connect 8 3 4 0;
#X connect 9 0 10 0;
#X connect 10 0 7 1;
#X connect 11 0 7 0;
#X connect 11 1 9 0;
#X connect 13 0 14 0;
#X connect 15 0 65 0;
#X connect 16 0 15 0;
#X connect 19 0 29 0;
#X connect 20 0 29 0;
#X connect 21 0 29 0;
#X connect 22 0 21 0;
#X connect 28 0 34 0;
#X connect 29 0 26 0;
#X connect 29 1 24 0;
#X connect 29 2 23 0;
#X connect 29 3 27 0;
#X connect 29 4 37 0;
#X connect 30 0 19 0;
#X connect 31 0 22 1;
#X connect 32 0 22 0;
#X connect 33 0 20 0;
#X connect 34 0 29 0;
#X connect 36 0 35 0;
#X connect 38 0 39 0;
#X connect 39 0 29 0;
#X connect 40 0 41 0;
#X connect 41 0 29 0;
#X connect 42 0 30 0;
#X connect 43 0 32 0;
#X connect 44 0 11 0;
#X connect 44 1 45 0;
#X connect 44 1 48 0;
#X connect 44 2 46 0;
#X connect 44 2 50 0;
#X connect 44 3 47 0;
#X connect 44 3 49 0;
#X connect 48 0 10 0;
#X connect 48 0 74 0;
#X connect 49 0 71 0;
#X connect 51 0 31 0;
#X connect 52 0 11 0;
#X connect 53 0 52 1;
#X connect 54 0 55 0;
#X connect 55 0 52 0;
#X connect 58 0 56 0;
#X connect 59 0 57 0;
#X connect 60 0 58 1;
#X connect 60 0 59 1;
#X connect 60 0 61 0;
#X connect 62 0 55 1;
#X connect 63 0 64 0;
#X connect 63 1 64 1;
#X connect 64 0 66 0;
#X connect 65 0 63 0;
#X connect 65 0 68 0;
#X connect 66 0 67 0;
#X connect 68 0 69 0;
#X connect 68 1 70 0;
#X connect 70 0 30 0;
#X connect 71 0 72 0;
#X connect 71 0 38 0;
#X connect 72 0 53 0;
#X connect 73 0 72 1;
#X connect 74 0 38 0;
